<?xml version="1.0" encoding="UTF-8" standalone="no"?>
<!-- Created with Inkscape (http://www.inkscape.org/) -->

<svg
   width="99.999977mm"
   height="109.96216mm"
   viewBox="0 0 99.999977 109.96216"
   version="1.1"
   id="svg1"
   xml:space="preserve"
   xmlns="http://www.w3.org/2000/svg"
   xmlns:svg="http://www.w3.org/2000/svg"><defs
     id="defs1"><linearGradient
       id="swatch13"><stop
         style="stop-color:#dec492;stop-opacity:1;"
         offset="0"
         id="stop13" /></linearGradient></defs><g
     id="layer1"
     transform="translate(-55.16169,-30.5828)"><g
       id="g1"
       transform="translate(-22.979167,30.461782)"><g
         id="layer2"
         transform="translate(22.979167)"
         style="display:inline"><path
           id="path4-9"
           style="display:inline;fill:none;stroke:#090609;stroke-width:0.323376;stroke-opacity:1"
           d="m 92.770188,0.282706 v 11.81685 A 49.83831,49.691292 0 0 0 55.323378,60.229951 49.83831,49.691292 0 0 0 105.16168,109.92149 49.83831,49.691292 0 0 0 154.99998,60.229951 49.83831,49.691292 0 0 0 117.55317,12.099556 V 0.282706 Z m 12.452992,4.299996 a 2.5,2.5 0 0 1 2.5001,2.500106 2.5,2.5 0 0 1 -2.5001,2.500105 2.5,2.5 0 0 1 -2.49959,-2.500105 2.5,2.5 0 0 1 2.49959,-2.500106 z" /></g></g></g></svg>
